<mxfile host="app.diagrams.net" modified="2024-06-23T14:26:49.450Z" agent="Mozilla/5.0 (Windows NT 10.0; Win64; x64) AppleWebKit/537.36 (KHTML, like Gecko) Chrome/126.0.0.0 Safari/537.36" etag="_idh8Tv95QuqmC_iTsSP" version="24.6.2" type="device">
  <diagram id="C5RBs43oDa-KdzZeNtuy" name="Page-1">
    <mxGraphModel dx="1195" dy="655" grid="1" gridSize="10" guides="1" tooltips="1" connect="1" arrows="1" fold="1" page="1" pageScale="1" pageWidth="827" pageHeight="1169" math="0" shadow="0">
      <root>
        <mxCell id="WIyWlLk6GJQsqaUBKTNV-0" />
        <mxCell id="WIyWlLk6GJQsqaUBKTNV-1" parent="WIyWlLk6GJQsqaUBKTNV-0" />
        <mxCell id="tL94Gd2aFIUAHlUR7GEF-27" style="edgeStyle=orthogonalEdgeStyle;rounded=0;orthogonalLoop=1;jettySize=auto;html=1;entryX=0.5;entryY=1;entryDx=0;entryDy=0;" edge="1" parent="WIyWlLk6GJQsqaUBKTNV-1" source="tL94Gd2aFIUAHlUR7GEF-0" target="tL94Gd2aFIUAHlUR7GEF-24">
          <mxGeometry relative="1" as="geometry" />
        </mxCell>
        <mxCell id="tL94Gd2aFIUAHlUR7GEF-0" value="&lt;font style=&quot;font-size: 16px;&quot;&gt;Raspberry Pi&lt;/font&gt;" style="rounded=1;whiteSpace=wrap;html=1;arcSize=22;" vertex="1" parent="WIyWlLk6GJQsqaUBKTNV-1">
          <mxGeometry x="370" y="140" width="120" height="60" as="geometry" />
        </mxCell>
        <mxCell id="tL94Gd2aFIUAHlUR7GEF-13" style="edgeStyle=orthogonalEdgeStyle;rounded=0;orthogonalLoop=1;jettySize=auto;html=1;entryX=0.5;entryY=0;entryDx=0;entryDy=0;" edge="1" parent="WIyWlLk6GJQsqaUBKTNV-1" source="tL94Gd2aFIUAHlUR7GEF-1" target="tL94Gd2aFIUAHlUR7GEF-12">
          <mxGeometry relative="1" as="geometry" />
        </mxCell>
        <mxCell id="tL94Gd2aFIUAHlUR7GEF-1" value="&lt;font style=&quot;font-size: 16px;&quot;&gt;Laser-ESP32&lt;/font&gt;" style="rounded=1;whiteSpace=wrap;html=1;" vertex="1" parent="WIyWlLk6GJQsqaUBKTNV-1">
          <mxGeometry x="220" y="340" width="120" height="60" as="geometry" />
        </mxCell>
        <mxCell id="tL94Gd2aFIUAHlUR7GEF-2" value="&lt;font style=&quot;font-size: 16px;&quot;&gt;LDR-ESP32&lt;/font&gt;" style="rounded=1;whiteSpace=wrap;html=1;" vertex="1" parent="WIyWlLk6GJQsqaUBKTNV-1">
          <mxGeometry x="550" y="340" width="120" height="60" as="geometry" />
        </mxCell>
        <mxCell id="tL94Gd2aFIUAHlUR7GEF-6" value="" style="edgeStyle=none;orthogonalLoop=1;jettySize=auto;html=1;rounded=0;entryX=0.5;entryY=0;entryDx=0;entryDy=0;fillColor=#dae8fc;strokeColor=#6c8ebf;exitX=0;exitY=1;exitDx=0;exitDy=0;" edge="1" parent="WIyWlLk6GJQsqaUBKTNV-1" source="tL94Gd2aFIUAHlUR7GEF-0" target="tL94Gd2aFIUAHlUR7GEF-1">
          <mxGeometry width="100" relative="1" as="geometry">
            <mxPoint x="360" y="210" as="sourcePoint" />
            <mxPoint x="370" y="200" as="targetPoint" />
            <Array as="points" />
          </mxGeometry>
        </mxCell>
        <mxCell id="tL94Gd2aFIUAHlUR7GEF-7" value="&lt;font style=&quot;font-size: 16px;&quot;&gt;Lichtschranke an oder aus?&lt;/font&gt;" style="text;html=1;align=center;verticalAlign=middle;resizable=0;points=[];autosize=1;strokeColor=#6c8ebf;fillColor=#dae8fc;" vertex="1" parent="WIyWlLk6GJQsqaUBKTNV-1">
          <mxGeometry x="320" y="270" width="220" height="30" as="geometry" />
        </mxCell>
        <mxCell id="tL94Gd2aFIUAHlUR7GEF-9" value="" style="edgeStyle=none;orthogonalLoop=1;jettySize=auto;html=1;rounded=0;entryX=0.334;entryY=-0.012;entryDx=0;entryDy=0;entryPerimeter=0;fillColor=#dae8fc;strokeColor=#6c8ebf;exitX=0.914;exitY=1.017;exitDx=0;exitDy=0;exitPerimeter=0;" edge="1" parent="WIyWlLk6GJQsqaUBKTNV-1" source="tL94Gd2aFIUAHlUR7GEF-0" target="tL94Gd2aFIUAHlUR7GEF-2">
          <mxGeometry width="100" relative="1" as="geometry">
            <mxPoint x="490" y="210" as="sourcePoint" />
            <mxPoint x="610" y="340" as="targetPoint" />
            <Array as="points" />
          </mxGeometry>
        </mxCell>
        <mxCell id="tL94Gd2aFIUAHlUR7GEF-10" value="" style="edgeStyle=none;orthogonalLoop=1;jettySize=auto;html=1;rounded=0;fillColor=#f8cecc;strokeColor=#b85450;exitX=0.418;exitY=-0.003;exitDx=0;exitDy=0;exitPerimeter=0;entryX=1;entryY=1;entryDx=0;entryDy=0;" edge="1" parent="WIyWlLk6GJQsqaUBKTNV-1" source="tL94Gd2aFIUAHlUR7GEF-2" target="tL94Gd2aFIUAHlUR7GEF-0">
          <mxGeometry width="100" relative="1" as="geometry">
            <mxPoint x="610" y="340" as="sourcePoint" />
            <mxPoint x="500" y="200" as="targetPoint" />
            <Array as="points" />
          </mxGeometry>
        </mxCell>
        <mxCell id="tL94Gd2aFIUAHlUR7GEF-11" value="&lt;span style=&quot;font-size: 16px;&quot;&gt;Lichtschranke ausgelÃ¶st?&lt;/span&gt;" style="text;html=1;align=center;verticalAlign=middle;resizable=0;points=[];autosize=1;strokeColor=#b85450;fillColor=#f8cecc;" vertex="1" parent="WIyWlLk6GJQsqaUBKTNV-1">
          <mxGeometry x="560" y="240" width="200" height="30" as="geometry" />
        </mxCell>
        <mxCell id="tL94Gd2aFIUAHlUR7GEF-12" value="Laser" style="rounded=0;whiteSpace=wrap;html=1;" vertex="1" parent="WIyWlLk6GJQsqaUBKTNV-1">
          <mxGeometry x="240" y="440" width="80" height="30" as="geometry" />
        </mxCell>
        <mxCell id="tL94Gd2aFIUAHlUR7GEF-18" style="edgeStyle=orthogonalEdgeStyle;rounded=0;orthogonalLoop=1;jettySize=auto;html=1;entryX=0.5;entryY=1;entryDx=0;entryDy=0;" edge="1" parent="WIyWlLk6GJQsqaUBKTNV-1" source="tL94Gd2aFIUAHlUR7GEF-17" target="tL94Gd2aFIUAHlUR7GEF-2">
          <mxGeometry relative="1" as="geometry" />
        </mxCell>
        <mxCell id="tL94Gd2aFIUAHlUR7GEF-17" value="LDR" style="rounded=0;whiteSpace=wrap;html=1;" vertex="1" parent="WIyWlLk6GJQsqaUBKTNV-1">
          <mxGeometry x="570" y="440" width="80" height="30" as="geometry" />
        </mxCell>
        <mxCell id="tL94Gd2aFIUAHlUR7GEF-20" value="" style="endArrow=none;dashed=1;html=1;dashPattern=1 3;strokeWidth=2;rounded=0;entryX=0;entryY=0.5;entryDx=0;entryDy=0;exitX=1;exitY=0.5;exitDx=0;exitDy=0;" edge="1" parent="WIyWlLk6GJQsqaUBKTNV-1" target="tL94Gd2aFIUAHlUR7GEF-17">
          <mxGeometry width="50" height="50" relative="1" as="geometry">
            <mxPoint x="460" y="455" as="sourcePoint" />
            <mxPoint x="380" y="420" as="targetPoint" />
          </mxGeometry>
        </mxCell>
        <mxCell id="tL94Gd2aFIUAHlUR7GEF-22" value="" style="endArrow=none;dashed=1;html=1;dashPattern=1 3;strokeWidth=2;rounded=0;entryX=0;entryY=0.5;entryDx=0;entryDy=0;exitX=1;exitY=0.5;exitDx=0;exitDy=0;" edge="1" parent="WIyWlLk6GJQsqaUBKTNV-1" source="tL94Gd2aFIUAHlUR7GEF-12">
          <mxGeometry width="50" height="50" relative="1" as="geometry">
            <mxPoint x="320" y="455" as="sourcePoint" />
            <mxPoint x="430" y="455" as="targetPoint" />
          </mxGeometry>
        </mxCell>
        <mxCell id="tL94Gd2aFIUAHlUR7GEF-23" value="Actor" style="shape=umlActor;verticalLabelPosition=bottom;verticalAlign=top;html=1;outlineConnect=0;fontColor=none;noLabel=1;" vertex="1" parent="WIyWlLk6GJQsqaUBKTNV-1">
          <mxGeometry x="430" y="425" width="30" height="60" as="geometry" />
        </mxCell>
        <mxCell id="tL94Gd2aFIUAHlUR7GEF-24" value="Discord-Chat" style="rounded=0;whiteSpace=wrap;html=1;" vertex="1" parent="WIyWlLk6GJQsqaUBKTNV-1">
          <mxGeometry x="380" y="50" width="100" height="30" as="geometry" />
        </mxCell>
        <mxCell id="tL94Gd2aFIUAHlUR7GEF-30" style="edgeStyle=orthogonalEdgeStyle;rounded=0;orthogonalLoop=1;jettySize=auto;html=1;entryX=0;entryY=0.5;entryDx=0;entryDy=0;" edge="1" parent="WIyWlLk6GJQsqaUBKTNV-1" source="tL94Gd2aFIUAHlUR7GEF-29" target="tL94Gd2aFIUAHlUR7GEF-0">
          <mxGeometry relative="1" as="geometry" />
        </mxCell>
        <mxCell id="tL94Gd2aFIUAHlUR7GEF-29" value="Kamera" style="rounded=0;whiteSpace=wrap;html=1;" vertex="1" parent="WIyWlLk6GJQsqaUBKTNV-1">
          <mxGeometry x="220" y="155" width="80" height="30" as="geometry" />
        </mxCell>
      </root>
    </mxGraphModel>
  </diagram>
</mxfile>
